<?xml version="1.0" encoding="UTF-8"?>
<svg width="100pt" height="100pt" version="1.1" viewBox="0 0 100 100" xmlns="http://www.w3.org/2000/svg">
 <path d="m78.254 72.297c-5.4766-4.2383-9.7266-8.9023-13.398-13.758 2.7891-0.20703 5.5781-0.40234 8.3672-0.72656 1.5586-0.17969 2.125-2.1953 0.89453-3.1641-4.3281-3.4102-7.7695-7.1289-10.758-11 1.3438-0.11328 2.6875-0.18359 4.0312-0.33203 1.5625-0.17188 2.1094-2.168 0.89453-3.1641-3.0898-2.5352-5.5938-5.2695-7.7852-8.1133 1.1523-0.089843 2.3086-0.15234 3.4609-0.27344 1.5547-0.16406 2.1094-2.1406 0.91797-3.1484-6.2578-5.3164-9.6602-11.613-13.355-17.766-0.6875-1.1406-2.3633-1.1406-3.0469 0-3.6953 6.1523-7.0977 12.449-13.355 17.766-1.1914 1.0117-0.63672 2.9883 0.91797 3.1484 1.1523 0.12109 2.3086 0.17969 3.4609 0.27344-2.1914 2.8398-4.6953 5.5781-7.7852 8.1133-1.2148 0.99609-0.66797 2.9922 0.89453 3.1641 1.3438 0.14844 2.6875 0.21875 4.0312 0.33203-2.9844 3.8711-6.4297 7.5859-10.754 11-1.2344 0.97266-0.66797 2.9844 0.89453 3.1641 2.7891 0.32031 5.5781 0.51953 8.3672 0.72656-3.668 4.8555-7.918 9.5195-13.398 13.758-1.25 0.96484-0.6875 3 0.87891 3.1836 7.0156 0.82812 14.027 1.332 21.043 1.5234-0.67969 4.332-2.4805 8.6602-5.457 12.992h23.578c-2.9766-4.332-4.7773-8.6602-5.457-12.992 7.0156-0.19141 14.027-0.69531 21.043-1.5234 1.5625-0.18359 2.125-2.2188 0.875-3.1836z" fill="#1e4c2a"/>
</svg>
