<?xml version="1.0" encoding="UTF-8"?>
<svg width="100pt" height="100pt" version="1.1" viewBox="0 0 100 100" xmlns="http://www.w3.org/2000/svg">
 <path d="m52.668 60.824c1.0352 1.0938 2.5039 1.6758 4.0078 1.5859 1.5039-0.089844 2.8945-0.83984 3.793-2.0508 0.18359-0.21484 0.5-0.25391 0.73047-0.082031 0.22656 0.16797 0.28125 0.48438 0.125 0.71875-0.85547 1.1484-2.082 1.9648-3.4727 2.3086 2.1016 1.793 4.8477 2.6406 7.5938 2.3438 2.7461-0.29688 5.25-1.7148 6.9219-3.9141 1.668-2.1992 2.3594-4.9922 1.9062-7.7148-0.45313-2.7266-2.0078-5.1445-4.2969-6.6875-1.9531 1.0234-4.1797 1.4102-6.3633 1.1055-1.4375 0.90625-3.1328 1.3164-4.8281 1.1641-0.28906-0.027343-0.50391-0.28516-0.48047-0.57812 0.027343-0.29297 0.28516-0.50781 0.57812-0.48438 2.8086 0.25391 5.4766-1.2852 6.6602-3.8477 0.13281-0.25 0.4375-0.35547 0.69531-0.23438 0.25781 0.11719 0.375 0.41797 0.26953 0.68359-0.40234 0.87109-0.96484 1.6641-1.6562 2.3281 2.8555 0.070312 5.5898-1.1523 7.4414-3.3242 1.8516-2.1758 2.6289-5.0664 2.1094-7.875-0.51953-2.8086-2.2773-5.2344-4.7852-6.6016-2.5078-1.3672-5.5-1.5312-8.1406-0.44531-0.97266-5.0234-5.5859-8.5-10.684-8.0469-5.0977 0.45312-9.0234 4.6875-9.0977 9.8008-0.015624 0.28516-0.25391 0.50781-0.53906 0.50391-0.28516-0.003907-0.51562-0.23047-0.52344-0.51562 0.019532-1.5352 0.35938-3.0508 1-4.4453-3.1055-0.66016-6.3359 0.30078-8.582 2.5469-2.2461 2.25-3.1992 5.4805-2.5352 8.5859 2.9492-1.5938 6.4453-1.8477 9.5977-0.69531 0.27344 0.10156 0.41406 0.41016 0.3125 0.68359-0.10156 0.27734-0.40625 0.41797-0.67969 0.32031-3.4531-1.2656-7.3125-0.66016-10.211 1.6016-2.8984 2.2617-4.4219 5.8555-4.0352 9.5117s2.6328 6.8516 5.9375 8.457c3.3086 1.6055 7.207 1.3906 10.316-0.57031-1.2812-0.57422-2.3828-1.4922-3.1758-2.6562-0.078125-0.11719-0.10938-0.26172-0.085937-0.40234 0.027343-0.14062 0.10937-0.26562 0.22656-0.34375 0.11719-0.082032 0.26172-0.10938 0.40234-0.082032 0.14062 0.027344 0.26172 0.10938 0.33984 0.22656 1.668 2.4531 4.7852 3.4688 7.5781 2.4688 0.27344-0.085937 0.56641 0.058594 0.66406 0.32812 0.09375 0.27344-0.039063 0.57031-0.30469 0.67578-1.4102 0.50391-2.9375 0.58203-4.3867 0.21875-1.5469 1.1328-3.3438 1.8711-5.2383 2.1484 0.9375 3.7734 3.9336 6.6914 7.7344 7.5195 3.8008 0.82812 7.7422-0.57422 10.164-3.6172-1.4414-0.16406-2.7812-0.83203-3.7812-1.8867-0.10547-0.10156-0.16406-0.23828-0.16406-0.38672 0-0.14453 0.058594-0.28516 0.16797-0.38672 0.10547-0.097656 0.24609-0.15234 0.39453-0.14453 0.14453 0.007813 0.28125 0.074219 0.375 0.18359z" fill="#1e4c2a"/>
 <path d="m54.438 66.113v7.1406c0.003906 2.2656 1.1484 4.3789 3.0508 5.6094h-13.777c1.8984-1.2344 3.0469-3.3438 3.0469-5.6094v-4.9336c2.7422 0.22656 5.4766-0.55859 7.6797-2.207z" fill="#1e4c2a"/>
</svg>
