<?xml version="1.0" encoding="UTF-8"?>
<svg width="100pt" height="100pt" version="1.1" viewBox="0 0 100 100" xmlns="http://www.w3.org/2000/svg">
 <path d="m34.629 23 32 55.422 1.3008-2.2617h-64l1.3008 2.2617 31.988-55.422c0.38281-0.71094 0.13281-1.5977-0.56641-2.0039-0.69531-0.40625-1.5898-0.1875-2.0234 0.49219l-32 55.512c-0.26562 0.46484-0.26562 1.0391 0.003906 1.5039 0.26563 0.46484 0.76172 0.75391 1.2969 0.75781h64c0.53516-0.011719 1.0195-0.30469 1.2852-0.76562 0.26172-0.46484 0.26172-1.0352-0.003906-1.4961l-32-55.422c-0.46094-0.55078-1.2461-0.69922-1.875-0.35156-0.62891 0.34766-0.92578 1.0898-0.70703 1.7734z" fill="#cffb00"/>
 <path d="m44.27 35.262 7.0508-12.262c0.37891-0.71094 0.12891-1.5977-0.56641-2.0039-0.69922-0.40625-1.5938-0.1875-2.0234 0.49219l-7.0508 12.262c-0.37891 0.71094-0.12891 1.5977 0.56641 2.0039 0.69922 0.40625 1.5938 0.1875 2.0234-0.49219z" fill="#cffb00"/>
 <path d="m58.352 33.699-7-12.172v0.003906c-0.40625-0.72656-1.3242-0.98047-2.0469-0.57812-0.72266 0.40625-0.98047 1.3242-0.57422 2.0469l7 12.172c0.42969 0.67969 1.3242 0.89844 2.0234 0.49219 0.69531-0.40625 0.94531-1.293 0.56641-2.0039z" fill="#cffb00"/>
 <path d="m51.301 47.43 14.07-24.43c0.37891-0.71094 0.12891-1.5977-0.56641-2.0039-0.69922-0.40625-1.5938-0.1875-2.0234 0.49219l-14.082 24.434c-0.37891 0.71094-0.12891 1.5938 0.56641 2.0039 0.69922 0.40625 1.5938 0.1875 2.0234-0.49609z" fill="#cffb00"/>
 <path d="m97.371 77-32-55.422c-0.45703-0.56641-1.2539-0.72266-1.8906-0.375-0.63672 0.35156-0.93359 1.1094-0.69922 1.7969l32 55.422c0.45312 0.56641 1.25 0.72266 1.8906 0.375 0.63672-0.35156 0.92969-1.1094 0.69922-1.7969z" fill="#cffb00"/>
 <path d="m32.078 79.211h64c0.83203 0 1.5-0.67188 1.5-1.5 0-0.82813-0.66797-1.5-1.5-1.5h-64c-0.82812 0-1.5 0.67187-1.5 1.5 0 0.82812 0.67188 1.5 1.5 1.5z" fill="#cffb00"/>
</svg>
