<?xml version="1.0" encoding="UTF-8"?>
<svg width="100pt" height="100pt" version="1.1" viewBox="0 0 100 100" xmlns="http://www.w3.org/2000/svg">
 <path d="m50 5.3633c8.4648 0 16.086 5.0781 21.559 13.293 11.566 17.348 11.566 45.332 0 62.684-11.816 17.727-31.301 17.727-43.117 0-11.566-17.352-11.566-45.332 0-62.684 5.4727-8.2109 13.094-13.293 21.559-13.293zm19.164 14.891c-10.676-16.012-27.652-16.012-38.328 0-10.926 16.387-10.926 43.102 0 59.488 10.676 16.012 27.652 16.012 38.328 0 10.926-16.387 10.926-43.102 0-59.488z" fill="#cffb00" fill-rule="evenodd"/>
</svg>
