<?xml version="1.0" encoding="UTF-8"?>
<svg width="100pt" height="100pt" version="1.1" viewBox="0 0 100 100" xmlns="http://www.w3.org/2000/svg">
 <path d="m48.215 58.93c1.7852 0 3.5703 1.7852 5.3555 1.7852-1.1875 1.2695-0.59375 3.0547 1.7852 5.3555 2.3828 0.16016 4.168-1.0312 5.3594-3.5703 0.058594-0.011719 1.25 0.58594 3.5703 1.7852l-7.1406 5.9531c-3.5742 10.16-1.1914 16.508 7.1406 19.047h-28.57c7.1406-1.2695 10.715-5.7148 10.715-13.332 0-7.6211-5.3594-11.43-5.3594-11.43l1.7852-3.8086s3.5742 3.8086 5.3594 5.7148c0 0 1.7852-5.5977 0-7.5zm1.7852-50c6.0547 0 11.52 2.5078 15.418 6.543 1.543-0.75781 3.2812-1.1875 5.1172-1.1875 6.4102 0 11.609 5.1953 11.609 11.609 0 0.39844-0.023437 0.79688-0.0625 1.1875 5.1484 1.1875 8.9883 5.8008 8.9883 11.312 0 1.7773-0.39844 3.4609-1.1133 4.9688 2.8438 2.1133 4.6875 5.5 4.6875 9.3164 0 6.4102-5.1992 11.605-11.609 11.605-2.6953 0-5.1758-0.91797-7.1445-2.457-1.9688 1.5391-4.4453 2.457-7.1406 2.457-3.5703 0-6.7617-1.6094-8.8906-4.1445-1.1328 0.37109-2.3477 0.57422-3.6094 0.57422-3.7266 0-7.0391-1.7539-9.1641-4.4844-1.2734 1.5273-2.9062 2.7422-4.7656 3.5195-1.4844 4.6992-5.8789 8.1055-11.07 8.1055-2.6953 0-5.1719-0.91406-7.1445-2.457-1.9648 1.5391-4.4453 2.457-7.1406 2.457-6.4102 0-11.609-5.1953-11.609-11.605 0-2.6953 0.91797-5.1719 2.457-7.1445-1.5391-1.9648-2.457-4.4453-2.457-7.1406 0-6.125 4.7422-11.141 10.754-11.578-0.027344-0.30469-0.039063-0.61328-0.039063-0.92188 0-6.4102 5.1992-11.609 11.609-11.609 1.5352 0 3 0.30078 4.3398 0.83984 3.8203-5.8789 10.445-9.7656 17.98-9.7656z" fill="#1e4c2a" fill-rule="evenodd"/>
</svg>
